<svg t="1744886737107" class="icon" viewBox="0 0 1024 1024" version="1.1" xmlns="http://www.w3.org/2000/svg" p-id="5579" width="32" height="32"><path d="M339.937911 427.655221a171.812652 171.812652 0 1 1 171.770103 171.833926 171.812652 171.812652 0 0 1-171.770103-171.833926z m255.910647-0.638235a84.73623 84.73623 0 1 0-84.736229 84.73623 84.73623 84.73623 0 0 0 84.736229-84.693681z m341.157465-1.829604a422.02174 422.02174 0 0 1-110.393246 284.88648 38.464249 38.464249 0 0 1-3.914503 5.914304L550.980693 1000.55553a41.783067 41.783067 0 0 1-7.509889 11.31802 45.527374 45.527374 0 0 1-62.185288-1.340292c-0.765881-0.765881-1.042449-1.765781-1.723232-2.574211L200.717754 715.988166a41.187382 41.187382 0 0 1-5.105874-7.680085 424.574677 424.574677 0 0 1 544.626533-641.382841 42.548948 42.548948 0 0 1 26.763288 38.166406l0.531862 3.935778a42.548948 42.548948 0 0 1-76.03497 27.444072l-0.744606 0.80843A340.391583 340.391583 0 0 0 260.116085 655.292092c0.234019 0.234019 0.553136 0.297843 0.765881 0.531862l18.530067 19.381046c6.382342 5.956853 12.55194 11.998803 19.295948 17.487617l142.113486 151.048765h-0.446764l71.333311 74.758502 71.333311-74.694678c-0.446764 0-0.872253 0.19147-1.340292 0.276568l142.028388-148.134162c1.084998-0.850979 1.999801-1.850879 3.063525-2.701859l35.719841-37.37925a41.65542 41.65542 0 0 1 8.70126-5.807932 338.264136 338.264136 0 0 0 46.995313-374.069075l2.127448-2.276369a42.27238 42.27238 0 0 1-14.1688-30.209753l-0.531862-3.935778a42.548948 42.548948 0 0 1 84.438387-7.488615 421.59625 421.59625 0 0 1 46.93149 193.15095z" fill="#0090FF" p-id="5580"></path></svg>